<?xml version="1.0" encoding="UTF-8" standalone="no"?>
<!DOCTYPE svg PUBLIC "-//W3C//DTD SVG 1.1//EN"
 "http://www.w3.org/Graphics/SVG/1.1/DTD/svg11.dtd">
<!-- Generated by graphviz version 2.26.3 (20100126.1600)
 -->
<!-- Title: SPOCQ/AMQP Pages: 1 -->
<svg width="1581pt" height="952pt"
 viewBox="0.00 0.00 1581.00 952.00" xmlns="http://www.w3.org/2000/svg" xmlns:xlink="http://www.w3.org/1999/xlink">
<g id="graph1" class="graph" transform="scale(1 1) rotate(0) translate(72 880)">
<title>SPOCQ/AMQP</title>
<polygon fill="white" stroke="white" points="-72,73 -72,-880 1510,-880 1510,73 -72,73"/>
<g id="graph3" class="cluster"><title>cluster_heroku</title>
<polygon fill="none" stroke="black" points="314,-485 314,-744 964,-744 964,-485 314,-485"/>
<text text-anchor="middle" x="639" y="-727.4" font-family="Times,serif" font-size="14.00">Heroku [ruby]</text>
</g>
<g id="graph4" class="cluster"><title>cluster_heroku_ui</title>
<polygon fill="none" stroke="black" points="322,-638 322,-713 800,-713 800,-638 322,-638"/>
<text text-anchor="middle" x="561" y="-696.4" font-family="Times,serif" font-size="14.00">datagraph.org</text>
</g>
<g id="graph5" class="cluster"><title>cluster_heroku_api</title>
<polygon fill="none" stroke="black" points="808,-638 808,-713 956,-713 956,-638 808,-638"/>
<text text-anchor="middle" x="882" y="-696.4" font-family="Times,serif" font-size="14.00">api.datagraph.org</text>
</g>
<g id="graph6" class="cluster"><title>cluster_rdf_store</title>
<polygon fill="none" stroke="black" points="402,-44 402,-451 1104,-451 1104,-44 402,-44"/>
<text text-anchor="middle" x="753" y="-434.4" font-family="Times,serif" font-size="14.00">RDF store [ruby, redis, casandra, ... ]</text>
</g>
<g id="graph7" class="cluster"><title>cluster_load_blancer</title>
<polygon fill="none" stroke="black" points="834,-314 834,-389 1096,-389 1096,-314 834,-314"/>
<text text-anchor="middle" x="965" y="-372.4" font-family="Times,serif" font-size="14.00">load balancer</text>
</g>
<g id="graph9" class="cluster"><title>cluster_repository</title>
<polygon fill="none" stroke="black" points="410,-52 410,-420 826,-420 826,-52 410,-52"/>
<text text-anchor="middle" x="618" y="-403.4" font-family="Times,serif" font-size="14.00">RDF repository</text>
</g>
<g id="graph10" class="cluster"><title>cluster_triplestore</title>
<polygon fill="none" stroke="black" points="418,-60 418,-236 818,-236 818,-60 418,-60"/>
<text text-anchor="middle" x="618" y="-219.4" font-family="Times,serif" font-size="14.00">RDFCache</text>
</g>
<g id="graph13" class="cluster"><title>cluster_admin_store</title>
<polygon fill="none" stroke="black" points="540,-314 540,-389 810,-389 810,-314 540,-314"/>
<text text-anchor="middle" x="675" y="-372.4" font-family="Times,serif" font-size="14.00">adminstrative data [ruby]</text>
</g>
<g id="graph14" class="cluster"><title>cluster_sae</title>
<polygon fill="none" stroke="black" points="8,-153 8,-560 306,-560 306,-153 8,-153"/>
<text text-anchor="middle" x="157" y="-543.4" font-family="Times,serif" font-size="14.00">SAE engine [CL]</text>
</g>
<g id="graph16" class="cluster"><title>cluster_compilation</title>
<polygon fill="none" stroke="black" points="16,-161 16,-389 148,-389 148,-161 16,-161"/>
<text text-anchor="middle" x="82" y="-372.4" font-family="Times,serif" font-size="14.00">compilation</text>
</g>
<g id="graph18" class="cluster"><title>cluster_smd</title>
<polygon fill="none" stroke="black" points="147,-60 147,-135 353,-135 353,-60 147,-60"/>
<text text-anchor="middle" x="250" y="-118.4" font-family="Times,serif" font-size="14.00">store metadata [Redis]</text>
</g>
<!-- user1 -->
<g id="node2" class="node"><title>user1</title>
<polygon fill="none" stroke="black" points="645,-808 603,-808 603,-812 591,-812 591,-772 645,-772 645,-808"/>
<polyline fill="none" stroke="black" points="591,-808 603,-808 "/>
<text text-anchor="middle" x="618" y="-784.9" font-family="Times,serif" font-size="14.00">user</text>
</g>
<!-- ui_user1 -->
<g id="node11" class="node"><title>ui_user1</title>
<ellipse fill="none" stroke="black" cx="721" cy="-664" rx="70.8437" ry="18"/>
<text text-anchor="middle" x="721" y="-658.9" font-family="Times,serif" font-size="14.00">datagraph/user1</text>
</g>
<!-- user1&#45;&gt;ui_user1 -->
<g id="edge87" class="edge"><title>user1&#45;&gt;ui_user1</title>
<path fill="none" stroke="black" d="M639.15,-764.127C656.898,-742.416 682.123,-711.558 699.867,-689.852"/>
<polygon fill="none" stroke="black" points="636.377,-761.99 632.757,-771.947 641.796,-766.42 636.377,-761.99"/>
<polygon fill="black" stroke="black" points="702.651,-691.977 706.27,-682.019 697.231,-687.546 702.651,-691.977"/>
</g>
<!-- user2 -->
<g id="node3" class="node"><title>user2</title>
<polygon fill="none" stroke="black" points="573,-808 531,-808 531,-812 519,-812 519,-772 573,-772 573,-808"/>
<polyline fill="none" stroke="black" points="519,-808 531,-808 "/>
<text text-anchor="middle" x="546" y="-784.9" font-family="Times,serif" font-size="14.00">user</text>
</g>
<!-- ui_user2 -->
<g id="node12" class="node"><title>ui_user2</title>
<ellipse fill="none" stroke="black" cx="561" cy="-664" rx="70.8437" ry="18"/>
<text text-anchor="middle" x="561" y="-658.9" font-family="Times,serif" font-size="14.00">datagraph/user3</text>
</g>
<!-- user2&#45;&gt;ui_user2 -->
<g id="edge89" class="edge"><title>user2&#45;&gt;ui_user2</title>
<path fill="none" stroke="black" d="M549.35,-761.86C551.824,-741.079 555.177,-712.913 557.651,-692.134"/>
<polygon fill="none" stroke="black" points="545.856,-761.604 548.149,-771.947 552.807,-762.431 545.856,-761.604"/>
<polygon fill="black" stroke="black" points="561.148,-692.363 558.855,-682.019 554.197,-691.535 561.148,-692.363"/>
</g>
<!-- user3 -->
<g id="node4" class="node"><title>user3</title>
<polygon fill="none" stroke="black" points="428,-808 386,-808 386,-812 374,-812 374,-772 428,-772 428,-808"/>
<polyline fill="none" stroke="black" points="374,-808 386,-808 "/>
<text text-anchor="middle" x="401" y="-784.9" font-family="Times,serif" font-size="14.00">user</text>
</g>
<!-- ui_user3 -->
<g id="node13" class="node"><title>ui_user3</title>
<ellipse fill="none" stroke="black" cx="401" cy="-664" rx="70.8437" ry="18"/>
<text text-anchor="middle" x="401" y="-658.9" font-family="Times,serif" font-size="14.00">datagraph/user3</text>
</g>
<!-- user3&#45;&gt;ui_user3 -->
<g id="edge91" class="edge"><title>user3&#45;&gt;ui_user3</title>
<path fill="none" stroke="black" d="M401,-761.86C401,-741.079 401,-712.913 401,-692.134"/>
<polygon fill="none" stroke="black" points="397.5,-761.947 401,-771.947 404.5,-761.947 397.5,-761.947"/>
<polygon fill="black" stroke="black" points="404.5,-692.019 401,-682.019 397.5,-692.019 404.5,-692.019"/>
</g>
<!-- app1 -->
<g id="node5" class="node"><title>app1</title>
<polygon fill="none" stroke="black" points="663.022,-784.438 753,-772 842.978,-784.438 842.894,-804.562 663.106,-804.562 663.022,-784.438"/>
<text text-anchor="middle" x="753" y="-784.9" font-family="Times,serif" font-size="14.00">RDF application</text>
</g>
<!-- sparql_api -->
<g id="node16" class="node"><title>sparql_api</title>
<ellipse fill="none" stroke="black" cx="882" cy="-664" rx="65.7957" ry="18"/>
<text text-anchor="middle" x="882" y="-658.9" font-family="Times,serif" font-size="14.00">SPARQL/ETF</text>
</g>
<!-- app1&#45;&gt;sparql_api -->
<g id="edge93" class="edge"><title>app1&#45;&gt;sparql_api</title>
<path fill="none" stroke="black" d="M778.725,-767.379C786.906,-760.03 795.925,-751.767 804,-744 822.742,-725.972 843.245,-704.887 858.525,-688.89"/>
<polygon fill="none" stroke="black" points="776.327,-764.828 771.196,-774.098 780.987,-770.051 776.327,-764.828"/>
<polygon fill="black" stroke="black" points="861.217,-691.138 865.576,-681.481 856.147,-686.312 861.217,-691.138"/>
</g>
<!-- app2 -->
<g id="node6" class="node"><title>app2</title>
<polygon fill="none" stroke="black" points="861.022,-784.438 951,-772 1040.98,-784.438 1040.89,-804.562 861.106,-804.562 861.022,-784.438"/>
<text text-anchor="middle" x="951" y="-784.9" font-family="Times,serif" font-size="14.00">RDF application</text>
</g>
<!-- app2&#45;&gt;sparql_api -->
<g id="edge95" class="edge"><title>app2&#45;&gt;sparql_api</title>
<path fill="none" stroke="black" d="M936.716,-763.916C925.024,-742.565 908.545,-712.473 896.732,-690.902"/>
<polygon fill="none" stroke="black" points="933.821,-765.917 941.694,-773.007 939.961,-762.555 933.821,-765.917"/>
<polygon fill="black" stroke="black" points="899.698,-689.032 891.825,-681.942 893.559,-692.394 899.698,-689.032"/>
</g>
<!-- app3 -->
<g id="node7" class="node"><title>app3</title>
<polygon fill="none" stroke="black" points="1250.81,-784.438 1344,-772 1437.19,-784.438 1437.1,-804.562 1250.9,-804.562 1250.81,-784.438"/>
<text text-anchor="middle" x="1344" y="-784.9" font-family="Times,serif" font-size="14.00">Ruby application</text>
</g>
<!-- abstractStore -->
<g id="node29" class="node"><title>abstractStore</title>
<ellipse fill="none" stroke="black" cx="750" cy="-187" rx="59.7947" ry="18"/>
<text text-anchor="middle" x="750" y="-181.9" font-family="Times,serif" font-size="14.00">abstract store</text>
</g>
<!-- app3&#45;&gt;abstractStore -->
<g id="edge97" class="edge"><title>app3&#45;&gt;abstractStore</title>
<path fill="none" stroke="black" d="M1344,-761.539C1344,-736.001 1344,-697.496 1344,-664 1344,-664 1344,-664 1344,-340 1344,-232.736 976.168,-199.544 819.414,-190.269"/>
<polygon fill="none" stroke="black" points="1340.5,-761.637 1344,-771.637 1347.5,-761.637 1340.5,-761.637"/>
<polygon fill="black" stroke="black" points="819.585,-186.773 809.4,-189.692 819.183,-193.762 819.585,-186.773"/>
<text text-anchor="middle" x="1363.5" y="-505.9" font-family="Times,serif" font-size="14.00">[spira]</text>
</g>
<!-- app4 -->
<g id="node8" class="node"><title>app4</title>
<polygon fill="none" stroke="black" points="1058.93,-784.438 1146,-772 1233.07,-784.438 1232.99,-804.562 1059.01,-804.562 1058.93,-784.438"/>
<text text-anchor="middle" x="1146" y="-784.9" font-family="Times,serif" font-size="14.00">Lisp application</text>
</g>
<!-- bgpService2 -->
<g id="node25" class="node"><title>bgpService2</title>
<ellipse fill="none" stroke="black" cx="1031" cy="-340" rx="57.1949" ry="18"/>
<text text-anchor="middle" x="1031" y="-334.9" font-family="Times,serif" font-size="14.00">BGP service</text>
</g>
<!-- app4&#45;&gt;bgpService2 -->
<g id="edge101" class="edge"><title>app4&#45;&gt;bgpService2</title>
<path fill="none" stroke="black" d="M1122.42,-766.681C1094.58,-737.331 1049.82,-683.95 1032,-628 1002.9,-536.628 1016.84,-420.521 1025.66,-368.023"/>
<polygon fill="none" stroke="black" points="1119.98,-769.195 1129.44,-773.958 1125.02,-764.333 1119.98,-769.195"/>
<polygon fill="black" stroke="black" points="1029.12,-368.561 1027.4,-358.108 1022.23,-367.355 1029.12,-368.561"/>
<text text-anchor="middle" x="1082" y="-592.9" font-family="Times,serif" font-size="14.00">[de.setf.resource]</text>
</g>
<!-- app4&#45;&gt;abstractStore -->
<g id="edge99" class="edge"><title>app4&#45;&gt;abstractStore</title>
<path fill="none" stroke="black" d="M1146,-761.539C1146,-736.001 1146,-697.496 1146,-664 1146,-664 1146,-664 1146,-340 1146,-269.422 924.36,-218.813 812.711,-197.797"/>
<polygon fill="none" stroke="black" points="1142.5,-761.637 1146,-771.637 1149.5,-761.637 1142.5,-761.637"/>
<polygon fill="black" stroke="black" points="813.057,-194.301 802.586,-195.915 811.778,-201.184 813.057,-194.301"/>
<text text-anchor="middle" x="1196" y="-505.9" font-family="Times,serif" font-size="14.00">[de.setf.resource]</text>
</g>
<!-- admin -->
<g id="node14" class="node"><title>admin</title>
<ellipse fill="none" stroke="black" cx="715" cy="-511" rx="65.7957" ry="18"/>
<text text-anchor="middle" x="715" y="-505.9" font-family="Times,serif" font-size="14.00">administratives</text>
</g>
<!-- ui_user1&#45;&gt;admin -->
<g id="edge6" class="edge"><title>ui_user1&#45;&gt;admin</title>
<path fill="none" stroke="black" d="M719.888,-635.65C718.81,-608.165 717.185,-566.708 716.108,-539.255"/>
<polygon fill="black" stroke="black" points="716.399,-635.993 720.288,-645.848 723.394,-635.719 716.399,-635.993"/>
<polygon fill="black" stroke="black" points="719.6,-538.983 715.711,-529.128 712.606,-539.258 719.6,-538.983"/>
</g>
<!-- repoModel -->
<g id="node41" class="node"><title>repoModel</title>
<ellipse fill="none" stroke="black" cx="623" cy="-340" rx="74.894" ry="18"/>
<text text-anchor="middle" x="623" y="-334.9" font-family="Times,serif" font-size="14.00">repository model</text>
</g>
<!-- ui_user1&#45;&gt;repoModel -->
<g id="edge75" class="edge"><title>ui_user1&#45;&gt;repoModel</title>
<path fill="none" stroke="black" d="M777.563,-645.232C784.477,-640.647 790.631,-634.983 795,-628 828.706,-574.119 828.618,-538.937 795,-485 781.122,-462.734 766.732,-467.759 742,-459 726.959,-453.673 720.401,-459.662 707,-451 674.825,-430.202 650.287,-392.596 636.265,-366.974"/>
<polygon fill="none" stroke="black" points="775.385,-642.448 768.476,-650.48 778.886,-648.509 775.385,-642.448"/>
<polygon fill="black" stroke="black" points="639.355,-365.329 631.581,-358.131 633.169,-368.606 639.355,-365.329"/>
</g>
<!-- sparql_sae -->
<g id="node46" class="node"><title>sparql_sae</title>
<ellipse fill="none" stroke="black" cx="232" cy="-511" rx="65.7957" ry="18"/>
<text text-anchor="middle" x="232" y="-505.9" font-family="Times,serif" font-size="14.00">SPARQL/ETF</text>
</g>
<!-- ui_user1&#45;&gt;sparql_sae -->
<g id="edge63" class="edge"><title>ui_user1&#45;&gt;sparql_sae</title>
<path fill="none" stroke="black" d="M672.108,-645.95C661.948,-642.813 651.221,-639.94 641,-638 605.128,-631.192 509.052,-645.488 477,-628 447.971,-612.161 460.158,-586.868 433,-568 394.748,-541.425 344.297,-527.168 303.51,-519.559"/>
<polygon fill="none" stroke="black" points="671.049,-649.286 681.64,-649.017 673.192,-642.623 671.049,-649.286"/>
<polygon fill="black" stroke="black" points="304.088,-516.107 293.63,-517.809 302.867,-523 304.088,-516.107"/>
<text text-anchor="middle" x="508" y="-615.4" font-family="Times,serif" font-size="14.00">[query]</text>
<text text-anchor="middle" x="508" y="-600.4" font-family="Times,serif" font-size="14.00">spocq&#45;bert</text>
<text text-anchor="middle" x="508" y="-585.4" font-family="Times,serif" font-size="14.00">etf</text>
<text text-anchor="middle" x="508" y="-570.4" font-family="Times,serif" font-size="14.00">amqp</text>
</g>
<!-- ui_user2&#45;&gt;admin -->
<g id="edge8" class="edge"><title>ui_user2&#45;&gt;admin</title>
<path fill="none" stroke="black" d="M614.131,-646.568C623.09,-643.676 632.303,-640.731 641,-638 655.621,-633.409 662.934,-638.602 674,-628 698.451,-604.574 708.334,-565.754 712.32,-539.307"/>
<polygon fill="black" stroke="black" points="612.98,-643.262 604.545,-649.673 615.137,-649.921 612.98,-643.262"/>
<polygon fill="black" stroke="black" points="715.821,-539.524 713.654,-529.153 708.881,-538.612 715.821,-539.524"/>
</g>
<!-- ui_user2&#45;&gt;repoModel -->
<g id="edge77" class="edge"><title>ui_user2&#45;&gt;repoModel</title>
<path fill="none" stroke="black" d="M506.897,-646.739C482.494,-638.697 458.694,-630.379 457,-628 441.532,-606.278 448.747,-593.357 457,-568 484.632,-483.102 557.119,-403.472 596.544,-364.678"/>
<polygon fill="none" stroke="black" points="506.004,-650.13 516.597,-649.913 508.181,-643.477 506.004,-650.13"/>
<polygon fill="black" stroke="black" points="599.228,-366.951 603.965,-357.474 594.352,-361.928 599.228,-366.951"/>
</g>
<!-- ui_user2&#45;&gt;sparql_sae -->
<g id="edge65" class="edge"><title>ui_user2&#45;&gt;sparql_sae</title>
<path fill="none" stroke="black" d="M511.084,-645.987C501.214,-642.936 490.859,-640.086 481,-638 438.599,-629.03 424.052,-644.558 384,-628 344.871,-611.823 343.548,-593.833 310,-568 295.143,-556.56 278.387,-544.241 264.224,-533.993"/>
<polygon fill="none" stroke="black" points="510.163,-649.367 520.754,-649.084 512.298,-642.701 510.163,-649.367"/>
<polygon fill="black" stroke="black" points="265.939,-530.915 255.78,-527.906 261.845,-536.593 265.939,-530.915"/>
<text text-anchor="middle" x="406.5" y="-592.9" font-family="Times,serif" font-size="14.00">[query]</text>
</g>
<!-- ui_user3&#45;&gt;admin -->
<g id="edge10" class="edge"><title>ui_user3&#45;&gt;admin</title>
<path fill="none" stroke="black" d="M450.554,-645.885C460.523,-642.814 471.008,-639.982 481,-638 509.203,-632.406 584.215,-640.723 610,-628 631.03,-617.623 671.139,-568.458 695.237,-537.254"/>
<polygon fill="black" stroke="black" points="449.248,-642.628 440.794,-649.015 451.386,-649.294 449.248,-642.628"/>
<polygon fill="black" stroke="black" points="698.276,-539.043 701.58,-528.977 692.72,-534.785 698.276,-539.043"/>
</g>
<!-- ui_user3&#45;&gt;repoModel -->
<g id="edge79" class="edge"><title>ui_user3&#45;&gt;repoModel</title>
<path fill="none" stroke="black" d="M405.156,-635.768C411.643,-598.687 426.812,-532.702 458,-485 492.1,-432.845 549.891,-388.196 587.237,-362.719"/>
<polygon fill="none" stroke="black" points="401.665,-635.42 403.481,-645.858 408.571,-636.566 401.665,-635.42"/>
<polygon fill="black" stroke="black" points="589.452,-365.447 595.802,-356.967 585.549,-359.636 589.452,-365.447"/>
</g>
<!-- ui_user3&#45;&gt;sparql_sae -->
<g id="edge67" class="edge"><title>ui_user3&#45;&gt;sparql_sae</title>
<path fill="none" stroke="black" d="M331.417,-652.152C303.224,-646.043 274.967,-637.807 265,-628 241.333,-604.712 234.292,-565.86 232.38,-539.369"/>
<polygon fill="none" stroke="black" points="330.853,-655.609 341.357,-654.223 332.281,-648.756 330.853,-655.609"/>
<polygon fill="black" stroke="black" points="235.866,-539.001 231.852,-529.196 228.875,-539.364 235.866,-539.001"/>
<text text-anchor="middle" x="287.5" y="-592.9" font-family="Times,serif" font-size="14.00">[query]</text>
</g>
<!-- userAccounts -->
<g id="node40" class="node"><title>userAccounts</title>
<ellipse fill="none" stroke="black" cx="759" cy="-340" rx="42.8962" ry="18"/>
<text text-anchor="middle" x="759" y="-334.9" font-family="Times,serif" font-size="14.00">accounts</text>
</g>
<!-- admin&#45;&gt;userAccounts -->
<g id="edge71" class="edge"><title>admin&#45;&gt;userAccounts</title>
<path fill="none" stroke="black" d="M727.058,-483.501C728.124,-480.656 729.128,-477.787 730,-475 741.31,-438.846 749.707,-395.887 754.478,-368.3"/>
<polygon fill="none" stroke="black" points="723.752,-482.341 723.291,-492.926 730.252,-484.939 723.752,-482.341"/>
<polygon fill="black" stroke="black" points="757.973,-368.621 756.185,-358.178 751.071,-367.457 757.973,-368.621"/>
<text text-anchor="middle" x="756" y="-461.9" font-family="Times,serif" font-size="14.00">[Spira]</text>
</g>
<!-- admin&#45;&gt;repoModel -->
<g id="edge73" class="edge"><title>admin&#45;&gt;repoModel</title>
<path fill="none" stroke="black" d="M700.363,-483.794C683.171,-451.839 654.822,-399.147 637.632,-367.196"/>
<polygon fill="none" stroke="black" points="697.508,-485.875 705.328,-493.023 703.673,-482.559 697.508,-485.875"/>
<polygon fill="black" stroke="black" points="640.5,-365.141 632.68,-357.993 634.336,-368.457 640.5,-365.141"/>
<text text-anchor="middle" x="717" y="-461.9" font-family="Times,serif" font-size="14.00">[Spira]</text>
</g>
<!-- sparql_api&#45;&gt;admin -->
<g id="edge12" class="edge"><title>sparql_api&#45;&gt;admin</title>
<path fill="none" stroke="black" d="M831.572,-646.516C822.436,-643.541 812.965,-640.583 804,-638 785.977,-632.808 777.22,-640.231 763,-628 736.55,-605.249 724.442,-565.662 719.062,-538.906"/>
<polygon fill="black" stroke="black" points="830.719,-649.92 841.312,-649.732 832.914,-643.273 830.719,-649.92"/>
<polygon fill="black" stroke="black" points="722.493,-538.21 717.258,-528.999 715.606,-539.464 722.493,-538.21"/>
</g>
<!-- sparql_api&#45;&gt;repoModel -->
<g id="edge81" class="edge"><title>sparql_api&#45;&gt;repoModel</title>
<path fill="none" stroke="black" d="M834.366,-645.929C824.456,-642.793 813.987,-639.925 804,-638 785.529,-634.44 648.184,-641.417 635,-628 599.531,-591.906 612.614,-433.098 619.673,-367.992"/>
<polygon fill="none" stroke="black" points="833.458,-649.315 844.052,-649.13 835.655,-642.668 833.458,-649.315"/>
<polygon fill="black" stroke="black" points="623.154,-368.354 620.786,-358.027 616.198,-367.576 623.154,-368.354"/>
</g>
<!-- sparql_api&#45;&gt;sparql_sae -->
<g id="edge69" class="edge"><title>sparql_api&#45;&gt;sparql_sae</title>
<path fill="none" stroke="black" d="M834.705,-645.889C824.701,-642.724 814.109,-639.855 804,-638 777.53,-633.142 583.856,-643.703 562,-628 538.807,-611.336 560.95,-586.27 539,-568 504.409,-539.208 385.536,-523.786 306.266,-516.503"/>
<polygon fill="none" stroke="black" points="833.881,-649.302 844.474,-649.126 836.083,-642.658 833.881,-649.302"/>
<polygon fill="black" stroke="black" points="306.111,-512.975 295.839,-515.57 305.488,-519.947 306.111,-512.975"/>
<text text-anchor="middle" x="584.5" y="-592.9" font-family="Times,serif" font-size="14.00">[query]</text>
</g>
<!-- bgpService1 -->
<g id="node24" class="node"><title>bgpService1</title>
<ellipse fill="none" stroke="black" cx="899" cy="-340" rx="57.1949" ry="18"/>
<text text-anchor="middle" x="899" y="-334.9" font-family="Times,serif" font-size="14.00">BGP service</text>
</g>
<!-- bgpService1&#45;&gt;abstractStore -->
<g id="edge30" class="edge"><title>bgpService1&#45;&gt;abstractStore</title>
<path fill="none" stroke="black" d="M874.982,-315.338C847.198,-286.807 801.724,-240.112 773.963,-211.606"/>
<polygon fill="none" stroke="black" points="872.713,-318.024 882.197,-322.746 877.728,-313.14 872.713,-318.024"/>
<polygon fill="black" stroke="black" points="776.454,-209.148 766.97,-204.425 771.439,-214.031 776.454,-209.148"/>
</g>
<!-- delegation -->
<g id="node52" class="node"><title>delegation</title>
<ellipse fill="none" stroke="black" cx="228" cy="-187" rx="70.1938" ry="18"/>
<text text-anchor="middle" x="228" y="-181.9" font-family="Times,serif" font-size="14.00">BGP delegation</text>
</g>
<!-- bgpService1&#45;&gt;delegation -->
<g id="edge52" class="edge"><title>bgpService1&#45;&gt;delegation</title>
<path fill="none" stroke="black" d="M861.864,-326.231C847.17,-321.422 829.996,-316.584 814,-314 767.26,-306.45 432.831,-319.227 388,-304 332.964,-285.306 280.9,-240.348 251.846,-211.921"/>
<polygon fill="black" stroke="black" points="254.177,-209.303 244.622,-204.726 249.238,-214.263 254.177,-209.303"/>
<text text-anchor="middle" x="419" y="-291.4" font-family="Times,serif" font-size="14.00">[bgpfield]</text>
<text text-anchor="middle" x="419" y="-276.4" font-family="Times,serif" font-size="14.00">spocq&#45;bert</text>
<text text-anchor="middle" x="419" y="-261.4" font-family="Times,serif" font-size="14.00">etf</text>
<text text-anchor="middle" x="419" y="-246.4" font-family="Times,serif" font-size="14.00">amqp</text>
</g>
<!-- bgpService2&#45;&gt;abstractStore -->
<g id="edge32" class="edge"><title>bgpService2&#45;&gt;abstractStore</title>
<path fill="none" stroke="black" d="M986.004,-322.131C978.982,-319.384 971.802,-316.599 965,-314 953.046,-309.432 949.491,-309.632 938,-304 930.066,-300.112 836.552,-241.456 784.48,-208.708"/>
<polygon fill="none" stroke="black" points="984.842,-325.435 995.429,-325.832 987.4,-318.92 984.842,-325.435"/>
<polygon fill="black" stroke="black" points="786.212,-205.663 775.884,-203.301 782.485,-211.588 786.212,-205.663"/>
</g>
<!-- statistics -->
<g id="node30" class="node"><title>statistics</title>
<ellipse fill="none" stroke="black" cx="504" cy="-187" rx="77.9931" ry="18"/>
<text text-anchor="middle" x="504" y="-181.9" font-family="Times,serif" font-size="14.00">statement statistics</text>
</g>
<!-- abstractStore&#45;&gt;statistics -->
<g id="edge27" class="edge"><title>abstractStore&#45;&gt;statistics</title>
<path fill="none" stroke="black" d="M679.471,-187C650.443,-187 621.415,-187 592.387,-187"/>
<polygon fill="none" stroke="black" points="679.739,-190.5 689.739,-187 679.739,-183.5 679.739,-190.5"/>
<polygon fill="black" stroke="black" points="592.316,-183.5 582.316,-187 592.316,-190.5 592.316,-183.5"/>
</g>
<!-- redis1 -->
<g id="node32" class="node"><title>redis1</title>
<ellipse fill="none" stroke="black" cx="489" cy="-86" rx="63.1928" ry="18"/>
<text text-anchor="middle" x="489" y="-80.9" font-family="Times,serif" font-size="14.00">Redis instance</text>
</g>
<!-- abstractStore&#45;&gt;redis1 -->
<g id="edge21" class="edge"><title>abstractStore&#45;&gt;redis1</title>
<path fill="none" stroke="black" d="M688.79,-175.522C650.89,-167.124 601.834,-153.877 561,-135 546.057,-128.092 530.802,-118.197 518.202,-109.105"/>
<polygon fill="none" stroke="black" points="688.155,-178.965 698.669,-177.658 689.635,-172.124 688.155,-178.965"/>
<polygon fill="black" stroke="black" points="520.059,-106.125 509.94,-102.986 515.893,-111.751 520.059,-106.125"/>
</g>
<!-- redis2 -->
<g id="node33" class="node"><title>redis2</title>
<ellipse fill="none" stroke="black" cx="633" cy="-86" rx="63.1928" ry="18"/>
<text text-anchor="middle" x="633" y="-80.9" font-family="Times,serif" font-size="14.00">Redis instance</text>
</g>
<!-- abstractStore&#45;&gt;redis2 -->
<g id="edge23" class="edge"><title>abstractStore&#45;&gt;redis2</title>
<path fill="none" stroke="black" d="M722.391,-163.167C703.73,-147.058 679.188,-125.872 660.541,-109.775"/>
<polygon fill="none" stroke="black" points="720.296,-165.982 730.153,-169.867 724.87,-160.683 720.296,-165.982"/>
<polygon fill="black" stroke="black" points="662.802,-107.102 652.945,-103.217 658.227,-112.401 662.802,-107.102"/>
</g>
<!-- cassandra -->
<g id="node34" class="node"><title>cassandra</title>
<ellipse fill="none" stroke="black" cx="762" cy="-86" rx="48.2431" ry="18"/>
<text text-anchor="middle" x="762" y="-80.9" font-family="Times,serif" font-size="14.00">Cassandra</text>
</g>
<!-- abstractStore&#45;&gt;cassandra -->
<g id="edge25" class="edge"><title>abstractStore&#45;&gt;cassandra</title>
<path fill="none" stroke="black" d="M753.356,-158.751C755.008,-144.847 756.994,-128.131 758.646,-114.229"/>
<polygon fill="none" stroke="black" points="749.85,-158.6 752.145,-168.943 756.801,-159.426 749.85,-158.6"/>
<polygon fill="black" stroke="black" points="762.128,-114.584 759.833,-104.241 755.177,-113.758 762.128,-114.584"/>
</g>
<!-- sparql1 -->
<g id="node89" class="node"><title>sparql1</title>
<ellipse fill="none" stroke="black" cx="1009" cy="-18" rx="83.1926" ry="18"/>
<text text-anchor="middle" x="1009" y="-12.9" font-family="Times,serif" font-size="14.00">SPARQL endpoint</text>
</g>
<!-- abstractStore&#45;&gt;sparql1 -->
<g id="edge104" class="edge"><title>abstractStore&#45;&gt;sparql1</title>
<path fill="none" stroke="black" d="M788.506,-166.314C800.848,-159.599 814.542,-152.059 827,-145 883.171,-113.171 943.785,-68.5971 978.959,-41.6001"/>
<polygon fill="none" stroke="black" points="786.496,-163.422 779.374,-171.267 789.833,-169.576 786.496,-163.422"/>
<polygon fill="black" stroke="black" points="981.135,-44.3422 986.913,-35.4616 976.858,-38.8006 981.135,-44.3422"/>
</g>
<!-- sparql2 -->
<g id="node90" class="node"><title>sparql2</title>
<ellipse fill="none" stroke="black" cx="838" cy="-18" rx="83.1926" ry="18"/>
<text text-anchor="middle" x="838" y="-12.9" font-family="Times,serif" font-size="14.00">SPARQL endpoint</text>
</g>
<!-- abstractStore&#45;&gt;sparql2 -->
<g id="edge106" class="edge"><title>abstractStore&#45;&gt;sparql2</title>
<path fill="none" stroke="black" d="M788.536,-165.839C800.055,-157.671 811.578,-147.298 819,-135 835.301,-107.988 838.892,-71.3674 839.15,-46.3347"/>
<polygon fill="none" stroke="black" points="786.586,-162.933 780.208,-171.393 790.47,-168.756 786.586,-162.933"/>
<polygon fill="black" stroke="black" points="842.648,-46.026 839.076,-36.0515 835.648,-46.0766 842.648,-46.026"/>
</g>
<!-- sensitivity -->
<g id="node62" class="node"><title>sensitivity</title>
<ellipse fill="none" stroke="black" cx="203" cy="-86" rx="48.0957" ry="18"/>
<text text-anchor="middle" x="203" y="-80.9" font-family="Times,serif" font-size="14.00">sensitivity</text>
</g>
<!-- statistics&#45;&gt;sensitivity -->
<g id="edge59" class="edge"><title>statistics&#45;&gt;sensitivity</title>
<path fill="none" stroke="black" d="M429.139,-175.229C368.772,-164.971 289.273,-149.504 260,-135 247.636,-128.874 235.762,-119.45 226.082,-110.496"/>
<polygon fill="black" stroke="black" points="428.589,-178.686 439.031,-176.893 429.751,-171.783 428.589,-178.686"/>
<polygon fill="black" stroke="black" points="228.448,-107.915 218.822,-103.489 223.587,-112.952 228.448,-107.915"/>
</g>
<!-- locality -->
<g id="node63" class="node"><title>locality</title>
<ellipse fill="none" stroke="black" cx="307" cy="-86" rx="37.8486" ry="18"/>
<text text-anchor="middle" x="307" y="-80.9" font-family="Times,serif" font-size="14.00">locality</text>
</g>
<!-- statistics&#45;&gt;locality -->
<g id="edge61" class="edge"><title>statistics&#45;&gt;locality</title>
<path fill="none" stroke="black" d="M462.865,-165.91C427.039,-147.543 375.674,-121.208 341.84,-103.862"/>
<polygon fill="black" stroke="black" points="461.415,-169.1 471.91,-170.548 464.608,-162.871 461.415,-169.1"/>
<polygon fill="black" stroke="black" points="343.285,-100.67 332.789,-99.2218 340.091,-106.899 343.285,-100.67"/>
</g>
<!-- userAccounts&#45;&gt;abstractStore -->
<g id="edge85" class="edge"><title>userAccounts&#45;&gt;abstractStore</title>
<path fill="none" stroke="black" d="M757.332,-311.65C755.716,-284.165 753.277,-242.708 751.662,-215.255"/>
<polygon fill="black" stroke="black" points="753.851,-312.071 757.932,-321.848 760.839,-311.66 753.851,-312.071"/>
<polygon fill="black" stroke="black" points="755.148,-214.905 751.066,-205.128 748.16,-215.317 755.148,-214.905"/>
</g>
<!-- repoModel&#45;&gt;abstractStore -->
<g id="edge83" class="edge"><title>repoModel&#45;&gt;abstractStore</title>
<path fill="none" stroke="black" d="M644.299,-314.34C667.778,-286.054 705.321,-240.826 728.772,-212.574"/>
<polygon fill="black" stroke="black" points="641.511,-312.219 637.817,-322.15 646.897,-316.69 641.511,-312.219"/>
<polygon fill="black" stroke="black" points="731.583,-214.667 735.277,-204.737 726.197,-210.196 731.583,-214.667"/>
</g>
<!-- abstraction -->
<g id="node48" class="node"><title>abstraction</title>
<ellipse fill="none" stroke="black" cx="89" cy="-340" rx="50.8469" ry="18"/>
<text text-anchor="middle" x="89" y="-334.9" font-family="Times,serif" font-size="14.00">abstraction</text>
</g>
<!-- sparql_sae&#45;&gt;abstraction -->
<g id="edge38" class="edge"><title>sparql_sae&#45;&gt;abstraction</title>
<path fill="none" stroke="black" d="M200.501,-494.881C182.228,-484.321 159.782,-469.132 144,-451 122.503,-426.301 107.122,-391.72 98.1859,-367.747"/>
<polygon fill="black" stroke="black" points="101.425,-366.411 94.7518,-358.182 94.8369,-368.776 101.425,-366.411"/>
</g>
<!-- optimization -->
<g id="node49" class="node"><title>optimization</title>
<ellipse fill="none" stroke="black" cx="82" cy="-187" rx="57.8449" ry="18"/>
<text text-anchor="middle" x="82" y="-181.9" font-family="Times,serif" font-size="14.00">optimization</text>
</g>
<!-- abstraction&#45;&gt;optimization -->
<g id="edge40" class="edge"><title>abstraction&#45;&gt;optimization</title>
<path fill="none" stroke="black" d="M79.4035,-322.057C78.6352,-316.292 78.2888,-309.877 78,-304 76.5115,-273.712 75.0602,-239 75.8881,-215.301"/>
<polygon fill="black" stroke="black" points="79.3868,-215.418 76.437,-205.243 72.3972,-215.037 79.3868,-215.418"/>
</g>
<!-- abstraction&#45;&gt;delegation -->
<g id="edge44" class="edge"><title>abstraction&#45;&gt;delegation</title>
<path fill="none" stroke="black" d="M104.675,-322.746C129.154,-295.801 176.589,-243.589 204.962,-212.358"/>
<polygon fill="black" stroke="black" points="207.605,-214.654 211.739,-204.899 202.424,-209.947 207.605,-214.654"/>
</g>
<!-- optimization&#45;&gt;abstraction -->
<g id="edge42" class="edge"><title>optimization&#45;&gt;abstraction</title>
<path fill="none" stroke="black" d="M88.9776,-205.243C92.6165,-228.263 94.2836,-269.073 96,-304 96.1264,-306.571 96.2637,-309.245 96.368,-311.923"/>
<polygon fill="black" stroke="black" points="92.8702,-312.108 96.5123,-322.057 99.8695,-312.008 92.8702,-312.108"/>
</g>
<!-- optimization&#45;&gt;sensitivity -->
<g id="edge55" class="edge"><title>optimization&#45;&gt;sensitivity</title>
<path fill="none" stroke="black" d="M110.077,-163.564C132.44,-144.897 163.193,-119.228 183.084,-102.624"/>
<polygon fill="black" stroke="black" points="107.687,-161 102.253,-170.095 112.173,-166.374 107.687,-161"/>
</g>
<!-- optimization&#45;&gt;locality -->
<g id="edge57" class="edge"><title>optimization&#45;&gt;locality</title>
<path fill="none" stroke="black" d="M115.9,-165.658C124.769,-160.853 134.511,-156.227 144,-153 193.395,-136.204 213.725,-159.096 260,-135 274.219,-127.596 286.595,-114.23 295.073,-103.325"/>
<polygon fill="black" stroke="black" points="114.003,-162.711 107.021,-170.68 117.448,-168.804 114.003,-162.711"/>
</g>
<!-- reduction -->
<g id="node50" class="node"><title>reduction</title>
<ellipse fill="none" stroke="black" cx="231" cy="-340" rx="46.1459" ry="18"/>
<text text-anchor="middle" x="231" y="-334.9" font-family="Times,serif" font-size="14.00">reduction</text>
</g>
<!-- reduction&#45;&gt;sparql_sae -->
<g id="edge48" class="edge"><title>reduction&#45;&gt;sparql_sae</title>
<path fill="none" stroke="black" d="M231.106,-358.168C231.28,-387.909 231.627,-447.203 231.834,-482.556"/>
<polygon fill="black" stroke="black" points="228.334,-482.721 231.893,-492.7 235.334,-482.68 228.334,-482.721"/>
</g>
<!-- delegation&#45;&gt;bgpService1 -->
<g id="edge50" class="edge"><title>delegation&#45;&gt;bgpService1</title>
<path fill="none" stroke="black" d="M275.624,-200.232C313.106,-210.48 366.727,-224.773 414,-236 555.886,-269.697 591.204,-279.711 735,-304 769.897,-309.895 779.396,-306.575 814,-314 826.024,-316.58 838.798,-320.073 850.69,-323.661"/>
<polygon fill="black" stroke="black" points="849.849,-327.064 860.437,-326.679 851.92,-320.377 849.849,-327.064"/>
<text text-anchor="middle" x="769" y="-291.4" font-family="Times,serif" font-size="14.00">[bgpmatch]</text>
<text text-anchor="middle" x="769" y="-276.4" font-family="Times,serif" font-size="14.00">spocq&#45;bert</text>
<text text-anchor="middle" x="769" y="-261.4" font-family="Times,serif" font-size="14.00">etf</text>
<text text-anchor="middle" x="769" y="-246.4" font-family="Times,serif" font-size="14.00">amqp</text>
</g>
<!-- delegation&#45;&gt;reduction -->
<g id="edge46" class="edge"><title>delegation&#45;&gt;reduction</title>
<path fill="none" stroke="black" d="M228.252,-205.24C228.583,-228.259 229.216,-269.066 230,-304 230.054,-306.426 230.115,-308.944 230.18,-311.47"/>
<polygon fill="black" stroke="black" points="226.687,-311.784 230.453,-321.687 233.684,-311.597 226.687,-311.784"/>
</g>
</g>
</svg>
